<mxfile host="app.diagrams.net" modified="2023-12-20T10:46:35.575Z" agent="Mozilla/5.0 (Windows NT 10.0; Win64; x64) AppleWebKit/537.36 (KHTML, like Gecko) Chrome/120.0.0.0 Safari/537.36 Edg/120.0.0.0" etag="v8Lf1erwcVwHK4nTAT4T" version="22.1.11" type="device">
  <diagram name="第 1 页" id="DlWbc_CsfBiEXpFM6pXh">
    <mxGraphModel dx="4248" dy="4411" grid="1" gridSize="10" guides="1" tooltips="1" connect="1" arrows="1" fold="1" page="1" pageScale="1" pageWidth="2339" pageHeight="3300" math="0" shadow="0">
      <root>
        <mxCell id="0" />
        <mxCell id="1" parent="0" />
        <mxCell id="Z6J47sClLCnxHhPXRvED-147" value="&lt;font style=&quot;font-size: 20px;&quot;&gt;Doctor&lt;/font&gt;" style="swimlane;whiteSpace=wrap;html=1;fontSize=15;fontStyle=1;fontFamily=Times New Roman;container=0;" parent="1" vertex="1">
          <mxGeometry x="-1840" y="-2160" width="590" height="800" as="geometry">
            <mxRectangle x="-1830" y="-2170" width="80" height="30" as="alternateBounds" />
          </mxGeometry>
        </mxCell>
        <mxCell id="Z6J47sClLCnxHhPXRvED-148" value="&lt;font style=&quot;font-size: 20px;&quot;&gt;Manage Appointment Scheduling System&lt;/font&gt;" style="swimlane;whiteSpace=wrap;html=1;fontSize=15;fontStyle=1;fontFamily=Times New Roman;container=0;" parent="1" vertex="1">
          <mxGeometry x="-1050" y="-2160" width="460" height="800" as="geometry" />
        </mxCell>
        <mxCell id="KSVYDBLKyM0QYWKPNwyB-7" value="Appointments" style="html=1;align=center;verticalAlign=middle;rounded=1;absoluteArcSize=1;arcSize=10;dashed=0;whiteSpace=wrap;fontFamily=Times New Roman;fontSize=15;fontStyle=1" parent="Z6J47sClLCnxHhPXRvED-148" vertex="1">
          <mxGeometry x="170" y="155" width="160" height="60" as="geometry" />
        </mxCell>
        <mxCell id="H93XmcPgIQw1p-FO6Vrx-16" value="Add new appointment scheduling form" style="rounded=0;whiteSpace=wrap;html=1;fontSize=15;fontStyle=1;fontFamily=Times New Roman;" parent="Z6J47sClLCnxHhPXRvED-148" vertex="1">
          <mxGeometry x="150" y="365" width="160" height="70" as="geometry" />
        </mxCell>
        <mxCell id="H93XmcPgIQw1p-FO6Vrx-22" value="Updating the database" style="rounded=0;whiteSpace=wrap;html=1;fontSize=15;fontStyle=1;fontFamily=Times New Roman;" parent="Z6J47sClLCnxHhPXRvED-148" vertex="1">
          <mxGeometry x="150" y="575" width="160" height="70" as="geometry" />
        </mxCell>
        <mxCell id="KSVYDBLKyM0QYWKPNwyB-39" value="Payment Successfully" style="rounded=0;whiteSpace=wrap;html=1;fontSize=15;fontStyle=1;fontFamily=Times New Roman;" parent="Z6J47sClLCnxHhPXRvED-148" vertex="1">
          <mxGeometry x="150" y="475" width="160" height="70" as="geometry" />
        </mxCell>
        <mxCell id="KSVYDBLKyM0QYWKPNwyB-40" value="" style="endArrow=classic;html=1;rounded=0;exitX=0.5;exitY=1;exitDx=0;exitDy=0;entryX=0.5;entryY=0;entryDx=0;entryDy=0;" parent="Z6J47sClLCnxHhPXRvED-148" source="H93XmcPgIQw1p-FO6Vrx-16" target="KSVYDBLKyM0QYWKPNwyB-39" edge="1">
          <mxGeometry width="50" height="50" relative="1" as="geometry">
            <mxPoint x="-150" y="590" as="sourcePoint" />
            <mxPoint x="-100" y="540" as="targetPoint" />
          </mxGeometry>
        </mxCell>
        <mxCell id="Y0szli2OYtI1Lo84pKaq-1" value="PatientInfo Form" style="rounded=0;whiteSpace=wrap;html=1;fontSize=15;fontStyle=1;fontFamily=Times New Roman;" parent="1" vertex="1">
          <mxGeometry x="-1220" y="-2010" width="160" height="70" as="geometry" />
        </mxCell>
        <mxCell id="Z6J47sClLCnxHhPXRvED-35" value="" style="ellipse;fillColor=strokeColor;html=1;fontSize=15;fontStyle=1;fontFamily=Times New Roman;" parent="1" vertex="1">
          <mxGeometry x="-1515" y="-2240" width="30" height="30" as="geometry" />
        </mxCell>
        <mxCell id="KSVYDBLKyM0QYWKPNwyB-4" value="" style="endArrow=classic;html=1;rounded=0;entryX=0.5;entryY=0;entryDx=0;entryDy=0;exitX=0.5;exitY=1;exitDx=0;exitDy=0;" parent="1" source="Z6J47sClLCnxHhPXRvED-35" edge="1">
          <mxGeometry width="50" height="50" relative="1" as="geometry">
            <mxPoint x="-1190" y="-2090" as="sourcePoint" />
            <mxPoint x="-1500" y="-2110" as="targetPoint" />
          </mxGeometry>
        </mxCell>
        <mxCell id="KSVYDBLKyM0QYWKPNwyB-10" value="Manage Appointment" style="html=1;align=center;verticalAlign=middle;rounded=1;absoluteArcSize=1;arcSize=10;dashed=0;whiteSpace=wrap;fontFamily=Times New Roman;fontSize=15;fontStyle=1" parent="1" vertex="1">
          <mxGeometry x="-1580" y="-2110" width="160" height="60" as="geometry" />
        </mxCell>
        <mxCell id="KSVYDBLKyM0QYWKPNwyB-16" value="" style="endArrow=open;endSize=12;dashed=1;html=1;rounded=0;exitX=1;exitY=0.5;exitDx=0;exitDy=0;entryX=0;entryY=0.5;entryDx=0;entryDy=0;" parent="1" source="Z6J47sClLCnxHhPXRvED-79" target="Y0szli2OYtI1Lo84pKaq-1" edge="1">
          <mxGeometry width="160" relative="1" as="geometry">
            <mxPoint x="-1250" y="-1900" as="sourcePoint" />
            <mxPoint x="-1090" y="-1900" as="targetPoint" />
          </mxGeometry>
        </mxCell>
        <mxCell id="KSVYDBLKyM0QYWKPNwyB-17" value="" style="endArrow=open;endSize=12;dashed=1;html=1;rounded=0;exitX=1;exitY=0.5;exitDx=0;exitDy=0;" parent="1" source="Y0szli2OYtI1Lo84pKaq-1" target="KSVYDBLKyM0QYWKPNwyB-7" edge="1">
          <mxGeometry width="160" relative="1" as="geometry">
            <mxPoint x="-1410" y="-1965" as="sourcePoint" />
            <mxPoint x="-1210" y="-1965" as="targetPoint" />
          </mxGeometry>
        </mxCell>
        <mxCell id="KSVYDBLKyM0QYWKPNwyB-18" value="" style="endArrow=open;endSize=12;dashed=1;html=1;rounded=0;exitX=0.5;exitY=1;exitDx=0;exitDy=0;entryX=1;entryY=0.5;entryDx=0;entryDy=0;" parent="1" source="KSVYDBLKyM0QYWKPNwyB-7" target="KSVYDBLKyM0QYWKPNwyB-20" edge="1">
          <mxGeometry width="160" relative="1" as="geometry">
            <mxPoint x="-1050" y="-1965" as="sourcePoint" />
            <mxPoint x="-860" y="-1965" as="targetPoint" />
            <Array as="points">
              <mxPoint x="-800" y="-1895" />
            </Array>
          </mxGeometry>
        </mxCell>
        <mxCell id="KSVYDBLKyM0QYWKPNwyB-19" value="" style="endArrow=open;endSize=12;dashed=1;html=1;rounded=0;exitX=0;exitY=0.5;exitDx=0;exitDy=0;" parent="1" source="KSVYDBLKyM0QYWKPNwyB-20" edge="1">
          <mxGeometry width="160" relative="1" as="geometry">
            <mxPoint x="-1040" y="-1955" as="sourcePoint" />
            <mxPoint x="-1500" y="-1930" as="targetPoint" />
            <Array as="points">
              <mxPoint x="-1310" y="-1930" />
            </Array>
          </mxGeometry>
        </mxCell>
        <mxCell id="KSVYDBLKyM0QYWKPNwyB-20" value="Appointment Form" style="rounded=0;whiteSpace=wrap;html=1;fontSize=15;fontStyle=1;fontFamily=Times New Roman;" parent="1" vertex="1">
          <mxGeometry x="-1220" y="-1930" width="160" height="70" as="geometry" />
        </mxCell>
        <mxCell id="KSVYDBLKyM0QYWKPNwyB-32" value="" style="endArrow=open;endSize=12;dashed=1;html=1;rounded=0;exitX=1;exitY=0.5;exitDx=0;exitDy=0;entryX=0;entryY=0.5;entryDx=0;entryDy=0;" parent="1" source="H93XmcPgIQw1p-FO6Vrx-31" target="KSVYDBLKyM0QYWKPNwyB-50" edge="1">
          <mxGeometry width="160" relative="1" as="geometry">
            <mxPoint x="-1410" y="-1965" as="sourcePoint" />
            <mxPoint x="-1220" y="-1760" as="targetPoint" />
          </mxGeometry>
        </mxCell>
        <mxCell id="KSVYDBLKyM0QYWKPNwyB-44" value="" style="endArrow=open;endSize=12;dashed=1;html=1;rounded=0;exitX=0;exitY=0.5;exitDx=0;exitDy=0;entryX=0.75;entryY=0;entryDx=0;entryDy=0;" parent="1" source="KSVYDBLKyM0QYWKPNwyB-39" target="H93XmcPgIQw1p-FO6Vrx-38" edge="1">
          <mxGeometry width="160" relative="1" as="geometry">
            <mxPoint x="-1220" y="-1650" as="sourcePoint" />
            <mxPoint x="-1420" y="-1650" as="targetPoint" />
            <Array as="points">
              <mxPoint x="-1460" y="-1650" />
            </Array>
          </mxGeometry>
        </mxCell>
        <mxCell id="KSVYDBLKyM0QYWKPNwyB-50" value="New Appointment Form" style="rounded=0;whiteSpace=wrap;html=1;fontSize=15;fontStyle=1;fontFamily=Times New Roman;" parent="1" vertex="1">
          <mxGeometry x="-1220" y="-1795" width="160" height="70" as="geometry" />
        </mxCell>
        <mxCell id="KSVYDBLKyM0QYWKPNwyB-52" value="" style="endArrow=open;endSize=12;dashed=1;html=1;rounded=0;exitX=1;exitY=0.5;exitDx=0;exitDy=0;entryX=0;entryY=0.5;entryDx=0;entryDy=0;" parent="1" source="KSVYDBLKyM0QYWKPNwyB-50" target="H93XmcPgIQw1p-FO6Vrx-16" edge="1">
          <mxGeometry width="160" relative="1" as="geometry">
            <mxPoint x="-1300" y="-1750" as="sourcePoint" />
            <mxPoint x="-1210" y="-1750" as="targetPoint" />
          </mxGeometry>
        </mxCell>
        <mxCell id="Z6J47sClLCnxHhPXRvED-79" value="Check the ID and name of the patient" style="html=1;align=center;verticalAlign=top;rounded=1;absoluteArcSize=1;arcSize=10;dashed=0;whiteSpace=wrap;fontFamily=Times New Roman;fontSize=15;fontStyle=1" parent="1" vertex="1">
          <mxGeometry x="-1580" y="-2005" width="160" height="60" as="geometry" />
        </mxCell>
        <mxCell id="H93XmcPgIQw1p-FO6Vrx-11" value="" style="rhombus;whiteSpace=wrap;html=1;fontSize=15;fontStyle=1" parent="1" vertex="1">
          <mxGeometry x="-1540" y="-1905" width="80" height="80" as="geometry" />
        </mxCell>
        <mxCell id="H93XmcPgIQw1p-FO6Vrx-26" value="" style="ellipse;html=1;shape=endState;fillColor=strokeColor;fontSize=15;fontStyle=1;fontFamily=Times New Roman;" parent="1" vertex="1">
          <mxGeometry x="-1515" y="-1460" width="30" height="30" as="geometry" />
        </mxCell>
        <mxCell id="H93XmcPgIQw1p-FO6Vrx-31" value="Create new appointment scheduling form" style="html=1;align=center;verticalAlign=top;rounded=1;absoluteArcSize=1;arcSize=10;dashed=0;whiteSpace=wrap;fontFamily=Times New Roman;fontSize=15;fontStyle=1" parent="1" vertex="1">
          <mxGeometry x="-1470" y="-1790" width="160" height="60" as="geometry" />
        </mxCell>
        <mxCell id="KSVYDBLKyM0QYWKPNwyB-34" style="edgeStyle=orthogonalEdgeStyle;rounded=0;orthogonalLoop=1;jettySize=auto;html=1;exitX=0.5;exitY=1;exitDx=0;exitDy=0;entryX=0.5;entryY=0;entryDx=0;entryDy=0;" parent="1" source="H93XmcPgIQw1p-FO6Vrx-32" target="H93XmcPgIQw1p-FO6Vrx-38" edge="1">
          <mxGeometry relative="1" as="geometry" />
        </mxCell>
        <mxCell id="H93XmcPgIQw1p-FO6Vrx-32" value="" style="rhombus;whiteSpace=wrap;html=1;fontSize=15;fontStyle=1" parent="1" vertex="1">
          <mxGeometry x="-1540" y="-1710" width="80" height="80" as="geometry" />
        </mxCell>
        <mxCell id="H93XmcPgIQw1p-FO6Vrx-38" value="Submit Appointment Information form" style="html=1;align=center;verticalAlign=top;rounded=1;absoluteArcSize=1;arcSize=10;dashed=0;whiteSpace=wrap;fontFamily=Times New Roman;fontSize=15;fontStyle=1" parent="1" vertex="1">
          <mxGeometry x="-1580" y="-1580" width="160" height="60" as="geometry" />
        </mxCell>
        <mxCell id="KSVYDBLKyM0QYWKPNwyB-9" value="" style="endArrow=classic;html=1;rounded=0;exitX=0.5;exitY=1;exitDx=0;exitDy=0;entryX=0.5;entryY=0;entryDx=0;entryDy=0;" parent="1" target="Z6J47sClLCnxHhPXRvED-79" edge="1">
          <mxGeometry width="50" height="50" relative="1" as="geometry">
            <mxPoint x="-1500" y="-2050" as="sourcePoint" />
            <mxPoint x="-1140" y="-1930" as="targetPoint" />
          </mxGeometry>
        </mxCell>
        <mxCell id="KSVYDBLKyM0QYWKPNwyB-21" value="" style="endArrow=classic;html=1;rounded=0;exitX=0.5;exitY=1;exitDx=0;exitDy=0;entryX=0.5;entryY=0;entryDx=0;entryDy=0;" parent="1" source="Z6J47sClLCnxHhPXRvED-79" target="H93XmcPgIQw1p-FO6Vrx-11" edge="1">
          <mxGeometry width="50" height="50" relative="1" as="geometry">
            <mxPoint x="-1190" y="-1670" as="sourcePoint" />
            <mxPoint x="-1140" y="-1720" as="targetPoint" />
          </mxGeometry>
        </mxCell>
        <mxCell id="KSVYDBLKyM0QYWKPNwyB-22" value="" style="endArrow=classic;html=1;rounded=0;exitX=0;exitY=0.5;exitDx=0;exitDy=0;entryX=0.5;entryY=0;entryDx=0;entryDy=0;" parent="1" source="H93XmcPgIQw1p-FO6Vrx-11" target="T4fCLZo8ajhPvmI_kKTS-1" edge="1">
          <mxGeometry width="50" height="50" relative="1" as="geometry">
            <mxPoint x="-1190" y="-1670" as="sourcePoint" />
            <mxPoint x="-1140" y="-1720" as="targetPoint" />
            <Array as="points">
              <mxPoint x="-1680" y="-1865" />
            </Array>
          </mxGeometry>
        </mxCell>
        <mxCell id="KSVYDBLKyM0QYWKPNwyB-23" value="" style="endArrow=classic;html=1;rounded=0;exitX=1;exitY=0.5;exitDx=0;exitDy=0;entryX=0.5;entryY=0;entryDx=0;entryDy=0;" parent="1" source="H93XmcPgIQw1p-FO6Vrx-11" target="H93XmcPgIQw1p-FO6Vrx-31" edge="1">
          <mxGeometry width="50" height="50" relative="1" as="geometry">
            <mxPoint x="-1190" y="-1670" as="sourcePoint" />
            <mxPoint x="-1140" y="-1720" as="targetPoint" />
            <Array as="points">
              <mxPoint x="-1390" y="-1865" />
            </Array>
          </mxGeometry>
        </mxCell>
        <mxCell id="KSVYDBLKyM0QYWKPNwyB-25" value="" style="endArrow=classic;html=1;rounded=0;entryX=0;entryY=0.5;entryDx=0;entryDy=0;" parent="1" target="H93XmcPgIQw1p-FO6Vrx-32" edge="1">
          <mxGeometry width="50" height="50" relative="1" as="geometry">
            <mxPoint x="-1600" y="-1670" as="sourcePoint" />
            <mxPoint x="-1140" y="-1610" as="targetPoint" />
            <Array as="points" />
          </mxGeometry>
        </mxCell>
        <mxCell id="KSVYDBLKyM0QYWKPNwyB-27" value="" style="endArrow=classic;html=1;rounded=0;entryX=1;entryY=0.5;entryDx=0;entryDy=0;exitX=0.5;exitY=1;exitDx=0;exitDy=0;" parent="1" source="H93XmcPgIQw1p-FO6Vrx-31" target="H93XmcPgIQw1p-FO6Vrx-32" edge="1">
          <mxGeometry width="50" height="50" relative="1" as="geometry">
            <mxPoint x="-1190" y="-1560" as="sourcePoint" />
            <mxPoint x="-1140" y="-1610" as="targetPoint" />
            <Array as="points">
              <mxPoint x="-1390" y="-1670" />
            </Array>
          </mxGeometry>
        </mxCell>
        <mxCell id="KSVYDBLKyM0QYWKPNwyB-30" value="Exist" style="text;html=1;align=center;verticalAlign=middle;resizable=0;points=[];autosize=1;strokeColor=none;fillColor=none;fontFamily=Times New Roman;fontStyle=1;fontSize=15;" parent="1" vertex="1">
          <mxGeometry x="-1620" y="-1890" width="60" height="30" as="geometry" />
        </mxCell>
        <mxCell id="KSVYDBLKyM0QYWKPNwyB-31" value="Nonexist" style="text;html=1;align=center;verticalAlign=middle;resizable=0;points=[];autosize=1;strokeColor=none;fillColor=none;fontStyle=1;fontSize=15;fontFamily=Times New Roman;" parent="1" vertex="1">
          <mxGeometry x="-1450" y="-1890" width="80" height="30" as="geometry" />
        </mxCell>
        <mxCell id="KSVYDBLKyM0QYWKPNwyB-48" value="" style="endArrow=classic;html=1;rounded=0;exitX=0.5;exitY=1;exitDx=0;exitDy=0;entryX=0.5;entryY=0;entryDx=0;entryDy=0;" parent="1" source="H93XmcPgIQw1p-FO6Vrx-38" target="H93XmcPgIQw1p-FO6Vrx-26" edge="1">
          <mxGeometry width="50" height="50" relative="1" as="geometry">
            <mxPoint x="-1430" y="-1670" as="sourcePoint" />
            <mxPoint x="-1380" y="-1720" as="targetPoint" />
          </mxGeometry>
        </mxCell>
        <mxCell id="T4fCLZo8ajhPvmI_kKTS-4" value="" style="endArrow=open;endSize=12;dashed=1;html=1;rounded=0;entryX=0;entryY=0.5;entryDx=0;entryDy=0;" parent="1" target="H93XmcPgIQw1p-FO6Vrx-38" edge="1">
          <mxGeometry width="160" relative="1" as="geometry">
            <mxPoint x="-1640" y="-1550" as="sourcePoint" />
            <mxPoint x="-1710" y="-1570" as="targetPoint" />
          </mxGeometry>
        </mxCell>
        <mxCell id="H93XmcPgIQw1p-FO6Vrx-15" value="Modify/Cancel Appointment" style="html=1;align=center;verticalAlign=top;rounded=1;absoluteArcSize=1;arcSize=10;dashed=0;whiteSpace=wrap;fontFamily=Times New Roman;fontSize=15;fontStyle=1" parent="1" vertex="1">
          <mxGeometry x="-1760" y="-1695" width="160" height="60" as="geometry" />
        </mxCell>
        <mxCell id="T4fCLZo8ajhPvmI_kKTS-1" value="" style="rhombus;whiteSpace=wrap;html=1;fontSize=15;fontStyle=1" parent="1" vertex="1">
          <mxGeometry x="-1720" y="-1810" width="80" height="80" as="geometry" />
        </mxCell>
        <mxCell id="T4fCLZo8ajhPvmI_kKTS-2" value="" style="endArrow=classic;html=1;rounded=0;exitX=0.5;exitY=1;exitDx=0;exitDy=0;entryX=0.5;entryY=0;entryDx=0;entryDy=0;" parent="1" source="T4fCLZo8ajhPvmI_kKTS-1" target="H93XmcPgIQw1p-FO6Vrx-15" edge="1">
          <mxGeometry width="50" height="50" relative="1" as="geometry">
            <mxPoint x="-1590" y="-1660" as="sourcePoint" />
            <mxPoint x="-1660" y="-1700" as="targetPoint" />
            <Array as="points" />
          </mxGeometry>
        </mxCell>
        <mxCell id="KSVYDBLKyM0QYWKPNwyB-45" value="New Appointment Form" style="rounded=0;whiteSpace=wrap;html=1;fontSize=15;fontStyle=1;fontFamily=Times New Roman;" parent="1" vertex="1">
          <mxGeometry x="-1800" y="-1580" width="160" height="70" as="geometry" />
        </mxCell>
        <mxCell id="KSVYDBLKyM0QYWKPNwyB-46" value="" style="endArrow=open;endSize=12;dashed=1;html=1;rounded=0;exitX=0.25;exitY=1;exitDx=0;exitDy=0;" parent="1" source="H93XmcPgIQw1p-FO6Vrx-15" target="KSVYDBLKyM0QYWKPNwyB-45" edge="1">
          <mxGeometry width="160" relative="1" as="geometry">
            <mxPoint x="-870" y="-1640" as="sourcePoint" />
            <mxPoint x="-1050" y="-1640" as="targetPoint" />
          </mxGeometry>
        </mxCell>
        <mxCell id="T4fCLZo8ajhPvmI_kKTS-6" value="" style="endArrow=classic;html=1;rounded=0;exitX=0;exitY=0.5;exitDx=0;exitDy=0;entryX=1;entryY=0.5;entryDx=0;entryDy=0;" parent="1" source="T4fCLZo8ajhPvmI_kKTS-1" target="T4fCLZo8ajhPvmI_kKTS-7" edge="1">
          <mxGeometry width="50" height="50" relative="1" as="geometry">
            <mxPoint x="-1490" y="-1510" as="sourcePoint" />
            <mxPoint x="-1800" y="-1770" as="targetPoint" />
          </mxGeometry>
        </mxCell>
        <mxCell id="T4fCLZo8ajhPvmI_kKTS-5" value="&lt;font size=&quot;1&quot; face=&quot;Times New Roman&quot;&gt;&lt;b style=&quot;font-size: 14px;&quot;&gt;Operations&lt;/b&gt;&lt;/font&gt;" style="text;html=1;align=center;verticalAlign=middle;resizable=0;points=[];autosize=1;strokeColor=none;fillColor=none;" parent="1" vertex="1">
          <mxGeometry x="-1680" y="-1730" width="90" height="30" as="geometry" />
        </mxCell>
        <mxCell id="T4fCLZo8ajhPvmI_kKTS-7" value="" style="ellipse;html=1;shape=endState;fillColor=strokeColor;fontSize=15;fontStyle=1;fontFamily=Times New Roman;" parent="1" vertex="1">
          <mxGeometry x="-1830" y="-1785" width="30" height="30" as="geometry" />
        </mxCell>
        <mxCell id="T4fCLZo8ajhPvmI_kKTS-8" value="&lt;font size=&quot;1&quot; face=&quot;Times New Roman&quot;&gt;&lt;b style=&quot;font-size: 14px;&quot;&gt;No Operation&lt;/b&gt;&lt;/font&gt;" style="text;html=1;align=center;verticalAlign=middle;resizable=0;points=[];autosize=1;strokeColor=none;fillColor=none;" parent="1" vertex="1">
          <mxGeometry x="-1810" y="-1815" width="110" height="30" as="geometry" />
        </mxCell>
        <mxCell id="ITGP57_AhHKQVKENnILL-1" value="New Appointment Form" style="rounded=0;whiteSpace=wrap;html=1;fontSize=15;fontStyle=1;fontFamily=Times New Roman;" parent="1" vertex="1">
          <mxGeometry x="-1230" y="-1585" width="160" height="70" as="geometry" />
        </mxCell>
        <mxCell id="ITGP57_AhHKQVKENnILL-2" value="" style="endArrow=open;endSize=12;dashed=1;html=1;rounded=0;exitX=1;exitY=0.5;exitDx=0;exitDy=0;entryX=0;entryY=0.5;entryDx=0;entryDy=0;" parent="1" source="H93XmcPgIQw1p-FO6Vrx-38" target="ITGP57_AhHKQVKENnILL-1" edge="1">
          <mxGeometry width="160" relative="1" as="geometry">
            <mxPoint x="-1300" y="-1750" as="sourcePoint" />
            <mxPoint x="-1210" y="-1750" as="targetPoint" />
          </mxGeometry>
        </mxCell>
        <mxCell id="ITGP57_AhHKQVKENnILL-3" value="" style="endArrow=open;endSize=12;dashed=1;html=1;rounded=0;exitX=1;exitY=0.5;exitDx=0;exitDy=0;entryX=0;entryY=0.5;entryDx=0;entryDy=0;" parent="1" source="ITGP57_AhHKQVKENnILL-1" target="H93XmcPgIQw1p-FO6Vrx-22" edge="1">
          <mxGeometry width="160" relative="1" as="geometry">
            <mxPoint x="-1300" y="-1750" as="sourcePoint" />
            <mxPoint x="-1210" y="-1750" as="targetPoint" />
          </mxGeometry>
        </mxCell>
      </root>
    </mxGraphModel>
  </diagram>
</mxfile>
